# xmcd CD database file
#
# Track frame offsets:
#	150
#	25083
#	48867
#	74998
#	106059
#	130319
#	154422
#	179555
#	207103
#	236548
#	264796
#	295179
#	319514
#
# Disc length: 4611 seconds
#
# Revision: 0
# Processed by: cddbd v1.5.2PL0 Copyright (c) Steve Scherf et al.
# Submitted via: CDex 1.70beta2
#
DISCID=b712010d
DTITLE=Azaxx - The Exotic Delight Bay
DYEAR=2009
DGENRE=Jazz
TTITLE0=Groucho
TTITLE1=Zorbanissimo
TTITLE2=The Pygmy Ballad
TTITLE3=Autumn Dreamy
TTITLE4=Carioca Paradise
TTITLE5=Happy Mango
TTITLE6=Beach Mambo
TTITLE7=Fiesta Tropica
TTITLE8=Smoothly Morning
TTITLE9=Coco Nuts Bay
TTITLE10=Ooba Ooba
TTITLE11=Wild Strawberry Jelly
TTITLE12=The Pepito Stroll
EXTD=YEAR: 2009
EXTT0=
EXTT1=
EXTT2=
EXTT3=
EXTT4=
EXTT5=
EXTT6=
EXTT7=
EXTT8=
EXTT9=
EXTT10=
EXTT11=
EXTT12=
PLAYORDER=
